<svg xmlns="http://www.w3.org/2000/svg" xmlns:xlink="http://www.w3.org/1999/xlink" zoomAndPan="magnify" preserveAspectRatio="xMidYMid meet" version="1.0" viewBox="176.34 173.79 22.5 27.75"><defs><clipPath id="id1"><path d="M 176.335938 173.785156 L 198.835938 173.785156 L 198.835938 201.535156 L 176.335938 201.535156 Z M 176.335938 173.785156 " clip-rule="nonzero"/></clipPath></defs><g clip-path="url(#id1)"><path fill="#000000" d="M 198.121094 183.246094 C 197.960938 183.371094 195.128906 184.972656 195.128906 188.53125 C 195.128906 192.648438 198.730469 194.105469 198.839844 194.144531 C 198.820312 194.230469 198.265625 196.136719 196.9375 198.082031 C 195.757812 199.789062 194.519531 201.496094 192.640625 201.496094 C 190.761719 201.496094 190.277344 200.402344 188.109375 200.402344 C 185.996094 200.402344 185.242188 201.53125 183.523438 201.53125 C 181.804688 201.53125 180.605469 199.953125 179.226562 198.007812 C 177.628906 195.726562 176.339844 192.183594 176.339844 188.820312 C 176.339844 183.425781 179.832031 180.566406 183.269531 180.566406 C 185.097656 180.566406 186.621094 181.769531 187.765625 181.769531 C 188.859375 181.769531 190.558594 180.492188 192.640625 180.492188 C 193.425781 180.492188 196.257812 180.566406 198.121094 183.246094 Z M 191.652344 178.210938 C 192.511719 177.183594 193.121094 175.765625 193.121094 174.34375 C 193.121094 174.148438 193.101562 173.945312 193.066406 173.785156 C 191.667969 173.839844 190.003906 174.722656 189 175.890625 C 188.214844 176.789062 187.480469 178.210938 187.480469 179.648438 C 187.480469 179.867188 187.515625 180.082031 187.53125 180.152344 C 187.621094 180.167969 187.761719 180.1875 187.90625 180.1875 C 189.160156 180.1875 190.738281 179.34375 191.652344 178.210938 Z M 191.652344 178.210938 " fill-opacity="1" fill-rule="nonzero"/></g></svg>