<svg width="14" height="12" viewBox="0 0 14 12" fill="none" xmlns="http://www.w3.org/2000/svg">
<path d="M10.334 0.333313H3.66732C1.66732 0.333313 0.333984 1.33331 0.333984 3.66665V8.33331C0.333984 10.6666 1.66732 11.6666 3.66732 11.6666H10.334C12.334 11.6666 13.6673 10.6666 13.6673 8.33331V3.66665C13.6673 1.33331 12.334 0.333313 10.334 0.333313ZM10.6473 4.39331L8.56065 6.05998C8.12065 6.41331 7.56065 6.58665 7.00065 6.58665C6.44065 6.58665 5.87398 6.41331 5.44065 6.05998L3.35398 4.39331C3.14065 4.21998 3.10732 3.89998 3.27398 3.68665C3.44732 3.47331 3.76065 3.43331 3.97398 3.60665L6.06065 5.27331C6.56732 5.67998 7.42732 5.67998 7.93398 5.27331L10.0207 3.60665C10.234 3.43331 10.554 3.46665 10.7207 3.68665C10.894 3.89998 10.8607 4.21998 10.6473 4.39331Z" fill="#B45F4B"/>
</svg>
