<svg width="22" height="23" viewBox="0 0 22 23" fill="none" xmlns="http://www.w3.org/2000/svg">
<path d="M10.9361 6.4541C9.66468 6.4541 8.4456 6.96965 7.54656 7.88754C6.64753 8.80543 6.14258 10.0501 6.14258 11.3482C6.14258 12.6462 6.64753 13.8909 7.54656 14.8088C8.4456 15.7267 9.66468 16.2422 10.9361 16.2422C12.2075 16.2422 13.4266 15.7267 14.3256 14.8088C15.2247 13.8909 15.7296 12.6462 15.7296 11.3482C15.7286 10.0504 15.2233 8.80625 14.3247 7.88853C13.4258 6.97099 12.2072 6.4551 10.9361 6.4541ZM10.9361 15.1065C9.95978 15.1065 9.02334 14.7106 8.33302 14.0057C7.64253 13.3009 7.25477 12.3448 7.25477 11.348C7.25477 10.3512 7.64254 9.39512 8.33302 8.69032C9.02334 7.98534 9.95978 7.58945 10.9361 7.58945C11.9124 7.58945 12.8489 7.98536 13.5392 8.69032C14.2297 9.39512 14.6174 10.3512 14.6174 11.348C14.6154 12.3443 14.227 13.299 13.537 14.0035C12.847 14.7079 11.9119 15.1045 10.9361 15.1065Z" fill="#C67D65"/>
<path d="M21.3169 8.92983H19.7302C19.3994 8.9153 19.0867 8.77218 18.856 8.52969C18.6253 8.28738 18.4939 7.96414 18.489 7.62617C18.484 7.28822 18.6058 6.96108 18.8294 6.71183L19.9416 5.57631C20.0465 5.47036 20.1058 5.32588 20.1058 5.17516C20.1058 5.02426 20.0465 4.87979 19.9416 4.77384L17.3872 2.14325C17.1663 1.93169 16.8223 1.93169 16.6012 2.14325L15.489 3.27877C15.3082 3.45484 15.0798 3.5716 14.8335 3.61402C14.587 3.6566 14.3338 3.6228 14.1063 3.51719C13.8765 3.42662 13.6784 3.26795 13.5378 3.06164C13.3971 2.85516 13.3201 2.61046 13.3166 2.35905V0.750376C13.3166 0.436757 13.0676 0.182617 12.7605 0.182617H9.12361C8.81661 0.182617 8.56752 0.436757 8.56752 0.750376V2.37034C8.55329 2.70812 8.41311 3.02734 8.17561 3.26288C7.93828 3.49843 7.62168 3.6326 7.29066 3.63767C6.95965 3.64274 6.63924 3.51837 6.39511 3.29008L5.28293 2.15456C5.06579 1.93321 4.71408 1.93321 4.49694 2.15456L1.92042 4.76254C1.81532 4.86848 1.75624 5.01296 1.75624 5.16368C1.75624 5.31458 1.81532 5.45905 1.92042 5.565L3.0326 6.70052C3.20273 6.88166 3.31676 7.11029 3.36029 7.35735C3.40382 7.6044 3.37502 7.85922 3.27738 8.0897V8.11234C3.18817 8.34671 3.0326 8.54847 2.83051 8.69209C2.62844 8.83571 2.38912 8.91446 2.14287 8.91852H0.556201C0.249027 8.91852 0.000110685 9.17282 0.000110685 9.48627V13.188C-0.00286835 13.3406 0.0543935 13.488 0.158994 13.5969C0.263594 13.7059 0.406753 13.7673 0.556201 13.7673H2.14287C2.47371 13.7818 2.78637 13.9249 3.01706 14.1674C3.24777 14.4097 3.37918 14.733 3.38415 15.0709C3.38912 15.4089 3.26731 15.736 3.04371 15.9853L1.93153 17.1208C1.8266 17.2267 1.76735 17.3712 1.76735 17.5219C1.76735 17.6728 1.8266 17.8173 1.93153 17.9233L4.497 20.5426C4.71811 20.7539 5.06203 20.7539 5.28298 20.5426L6.39516 19.407C6.57606 19.231 6.80445 19.1142 7.05091 19.0718C7.29734 19.0292 7.55056 19.063 7.77795 19.1684C8.00784 19.2592 8.20579 19.4179 8.34646 19.6242C8.48713 19.8307 8.56426 20.0753 8.56757 20.3268V21.9467C8.56757 22.2603 8.81665 22.5145 9.12366 22.5145H12.7495C13.0565 22.5145 13.3056 22.2603 13.3056 21.9467V20.3268C13.3198 19.989 13.46 19.6698 13.6975 19.4342C13.9348 19.1987 14.2514 19.0645 14.5825 19.0594C14.9135 19.0544 15.2339 19.1787 15.478 19.407L16.5902 20.5425C16.8073 20.7639 17.159 20.7639 17.3762 20.5425L19.9416 17.9232C20.0466 17.8173 20.1058 17.6728 20.1058 17.5219C20.1058 17.3712 20.0466 17.2267 19.9416 17.1208L18.8295 15.9852C18.66 15.806 18.5461 15.5795 18.5019 15.3345C18.4577 15.0895 18.4852 14.8367 18.581 14.6074C18.5824 14.5961 18.5824 14.5848 18.581 14.5734C18.6702 14.3391 18.8256 14.1373 19.0277 13.9937C19.2298 13.8501 19.4693 13.7712 19.7154 13.7673H21.317C21.6241 13.7673 21.873 13.513 21.873 13.1995V9.49759C21.873 9.18414 21.6241 8.92983 21.317 8.92983H21.3169ZM20.7608 12.6316L19.7302 12.6317C19.1028 12.6454 18.5055 12.9084 18.0651 13.3647C17.6247 13.8211 17.3761 14.4349 17.372 15.0755C17.368 15.7161 17.6088 16.3331 18.0435 16.7953L18.7849 17.5523L17.0054 19.3692L16.264 18.6121C15.8105 18.1708 15.2067 17.9266 14.5801 17.9315C13.9537 17.9364 13.3536 18.1899 12.9069 18.6382C12.4601 19.0866 12.2016 19.6948 12.186 20.3344V21.379H9.67978V20.3268C9.66637 19.6861 9.40885 19.0763 8.96184 18.6267C8.51483 18.177 7.91372 17.9232 7.28628 17.919C6.65884 17.915 6.05445 18.1608 5.60178 18.6046L4.86033 19.3616L3.08084 17.5448L3.82229 16.7877C4.25458 16.3248 4.49375 15.7083 4.48892 15.0686C4.48412 14.429 4.23587 13.8163 3.79679 13.3603C3.35755 12.904 2.76189 12.6401 2.13547 12.6242H1.11235V10.0654H2.14292C2.61114 10.0627 3.06775 9.91719 3.45436 9.64734C3.84081 9.37748 4.13938 8.99592 4.31165 8.55136C4.49503 8.11372 4.54683 7.63027 4.46027 7.16256C4.37388 6.69486 4.1531 6.26397 3.82606 5.92465L3.0846 5.16764L4.86409 3.35081L5.60555 4.10783C6.05902 4.54919 6.66277 4.7932 7.28919 4.78827C7.91579 4.78337 8.51573 4.53007 8.96259 4.08161C9.40946 3.63316 9.66795 3.025 9.68354 2.3856V1.31817H12.197V2.37037C12.2003 2.84876 12.3433 3.31513 12.6075 3.7102C12.8714 4.10526 13.2448 4.41093 13.6799 4.58855C14.1086 4.77611 14.5821 4.82934 15.0403 4.74096C15.4986 4.65259 15.9206 4.42701 16.2528 4.09262L16.9942 3.3356L18.7737 5.15243L18.0323 5.90945C17.7026 6.25196 17.4811 6.68757 17.3966 7.15986C17.312 7.63215 17.3681 8.11966 17.5576 8.55899C17.7282 9.00325 18.0255 9.38495 18.4108 9.6548C18.7961 9.92464 19.2517 10.0703 19.7191 10.073H20.7608L20.7608 12.6316Z" fill="#C67D65"/>
</svg>
