<svg xmlns="http://www.w3.org/2000/svg" fill="none" viewBox="0 0.5 68.3 66">
<path d="M67.2312 36.8394C64.7556 38.4173 40.3474 54.3047 35.8422 54.3047C31.3369 54.3047 15.4054 47.5961 12.7507 48.3223C11.3181 48.7091 8.40357 50.416 5.80859 51.909C9.78259 57.6219 15.5057 61.991 22.1767 64.4048C28.8478 66.8185 36.133 67.1562 43.0125 65.3704C49.892 63.5846 56.0214 59.7648 60.5429 54.4457C65.0644 49.1265 67.7517 42.5743 68.2284 35.7061C68.0386 36.1822 67.687 36.5818 67.2312 36.8394V36.8394Z" fill="#FAF9F8"/>
<path d="M1.07344 30.1612C3.55253 28.5833 27.9572 12.6959 32.4624 12.6959C36.9676 12.6959 52.8991 19.4044 55.5538 18.6817C56.9865 18.2915 59.901 16.5846 62.496 15.0916C58.5222 9.37887 52.7994 5.00981 46.1286 2.59591C39.4579 0.182009 32.173 -0.155904 25.2936 1.62946C18.4143 3.41483 12.2848 7.23412 7.76301 12.5528C3.24126 17.8714 0.553584 24.4232 0.0761719 31.2911C0.266651 30.8162 0.618245 30.4179 1.07344 30.1612V30.1612Z" fill="#FAF9F8"/>
<path d="M67.3218 27.8641C66.0752 29.0654 64.3265 29.3741 60.787 30.5312C58.5888 31.254 56.1799 31.8377 54.1468 31.8377C48.855 31.8377 36.4877 22.6113 32.3055 22.6113C28.1234 22.6113 6.9352 32.2041 3.86267 33.2561C1.88923 33.9347 0.284506 33.1169 0.0351925 32.0345C0.0141238 32.5197 6.50532e-05 33.0083 6.50532e-05 33.5004C-0.00425161 35.6358 0.206269 37.7667 0.62863 39.8628C0.688989 39.6008 0.808938 39.355 0.979776 39.1434C2.22634 37.9422 3.97856 37.6334 7.5146 36.4763C9.71629 35.7569 12.1251 35.1699 14.1548 35.1699C19.45 35.1699 31.8174 44.3962 35.9961 44.3962C40.1747 44.3962 61.3699 34.8034 64.4389 33.7515C66.4123 33.0728 68.0171 33.894 68.2629 34.9798C68.2874 34.4912 68.298 34.0026 68.298 33.5072C68.2989 31.3739 68.0873 29.2456 67.6659 27.1515C67.6069 27.4107 67.4894 27.654 67.3218 27.8641V27.8641Z" fill="#FAF9F8"/>
</svg>