<?xml version="1.0" encoding="utf-8"?>
<svg xmlns="http://www.w3.org/2000/svg" xmlns:xlink="http://www.w3.org/1999/xlink" style="margin: auto; background: rgba(255, 255, 255, 0); display: block; shape-rendering: auto;" width="200px" height="200px" viewBox="0 0 100 100" preserveAspectRatio="xMidYMid">
<g transform="translate(50 50)">
<g>
<animateTransform attributeName="transform" type="rotate" values="0;51.42857142857143" keyTimes="0;1" dur="0.2s" repeatCount="indefinite"></animateTransform><path d="M25.17439175034821 -6.5 L32.17439175034821 -6.5 L32.17439175034821 6.5 L25.17439175034821 6.5 A26 26 0 0 1 20.777881160380936 15.629448310323912 L20.777881160380936 15.629448310323912 L25.14230977339207 21.10226868760012 L14.978500501307686 29.207636111763655 L10.61407188829655 23.734815734487448 A26 26 0 0 1 0.7352022651122335 25.989603260330348 L0.7352022651122335 25.989603260330348 L-0.8224442725819677 32.81409864560311 L-13.496507130945677 29.921326504171024 L-11.938860593251476 23.09683111889826 A26 26 0 0 1 -19.861098931179093 16.77905686401702 L-19.861098931179093 16.77905686401702 L-26.167881006496025 19.816243037839925 L-31.80836961502429 8.103647755108472 L-25.501587539707355 5.066461581285564 A26 26 0 0 1 -25.501587539707355 -5.066461581285558 L-25.501587539707355 -5.066461581285558 L-31.80836961502429 -8.103647755108463 L-26.16788100649603 -19.81624303783992 L-19.861098931179097 -16.779056864017015 A26 26 0 0 1 -11.938860593251482 -23.09683111889826 L-11.938860593251482 -23.09683111889826 L-13.496507130945684 -29.921326504171024 L-0.822444272581969 -32.81409864560311 L0.735202265112233 -25.989603260330348 A26 26 0 0 1 10.61407188829654 -23.73481573448745 L10.61407188829654 -23.73481573448745 L14.978500501307673 -29.207636111763662 L25.14230977339207 -21.102268687600123 L20.777881160380936 -15.629448310323912 A26 26 0 0 1 25.174391750348207 -6.50000000000001 M0 -20A20 20 0 1 0 0 20 A20 20 0 1 0 0 -20" fill="#b45f4b"></path></g></g>
<!-- [ldio] generated by https://loading.io/ --></svg>