<svg width="130" height="130" viewBox="0 0 130 130" fill="none" xmlns="http://www.w3.org/2000/svg">
<circle cx="65" cy="65" r="65" fill="#C67D65"/>
<path d="M62.0808 42.7166C63.6908 41.3399 66.3274 41.3399 67.9608 42.7166L71.6475 45.8902C72.3475 46.4968 73.6541 46.9868 74.5874 46.9868H78.5541C81.0274 46.9868 83.0574 49.0166 83.0574 51.4899V55.4568C83.0574 56.3668 83.5474 57.6968 84.1541 58.3968L87.3275 62.0834C88.7041 63.6934 88.7041 66.3301 87.3275 67.9634L84.1541 71.65C83.5474 72.35 83.0574 73.6567 83.0574 74.59V78.5568C83.0574 81.0302 81.0274 83.06 78.5541 83.06H74.5874C73.6774 83.06 72.3475 83.5499 71.6475 84.1566L67.9608 87.3299C66.3508 88.7066 63.7141 88.7066 62.0808 87.3299L58.3941 84.1566C57.6941 83.5499 56.3875 83.06 55.4541 83.06H51.4174C48.9441 83.06 46.9141 81.0302 46.9141 78.5568V74.5666C46.9141 73.6566 46.4241 72.35 45.8408 71.65L42.6908 67.9401C41.3374 66.3301 41.3374 63.7167 42.6908 62.1067L45.8408 58.3968C46.4241 57.6968 46.9141 56.3901 46.9141 55.4801V51.4899C46.9141 49.0166 48.9441 46.9868 51.4174 46.9868H55.4541C56.3641 46.9868 57.6941 46.4968 58.3941 45.8902L62.0808 42.7166Z" stroke="white" stroke-width="3.5" stroke-linecap="round" stroke-linejoin="round"/>
<path d="M60.0799 71.5801L63.4632 74.1934C63.9065 74.6368 64.8866 74.8468 65.5399 74.8468H69.6699C70.9765 74.8468 72.3999 73.8669 72.7265 72.5602L75.3399 64.5801C75.8765 63.0635 74.8966 61.7335 73.2632 61.7335H68.8999C68.2466 61.7335 67.7099 61.197 67.8032 60.427L68.3399 56.927C68.5499 55.947 67.8966 54.8503 66.9166 54.5236C66.0532 54.1969 64.9566 54.6402 64.5132 55.2935L60.0332 61.9434" stroke="white" stroke-width="3.5" stroke-miterlimit="10"/>
<path d="M54.5 71.5802V60.8936C54.5 59.3536 55.1533 58.8169 56.6933 58.8169H57.79C59.3067 58.8169 59.9833 59.3536 59.9833 60.8936V71.5802C59.9833 73.0968 59.33 73.6569 57.79 73.6569H56.6933C55.1533 73.6569 54.5 73.1202 54.5 71.5802Z" stroke="white" stroke-width="3.5" stroke-linecap="round" stroke-linejoin="round"/>
</svg>
