<svg width="24" height="25" viewBox="0 0 24 25" fill="none" xmlns="http://www.w3.org/2000/svg">
<path opacity="0.1" d="M16.1898 2.5H7.81976C4.17976 2.5 2.00977 4.67 2.00977 8.31V16.68C2.00977 20.32 4.17976 22.49 7.81976 22.49H16.1898C19.8298 22.49 21.9998 20.32 21.9998 16.68V8.31C21.9998 4.67 19.8298 2.5 16.1898 2.5Z" fill="#B45F4B"/>
<path d="M6 15.3896C5.59 15.3896 5.25 15.0496 5.25 14.6396V10.3496C5.25 9.93961 5.59 9.59961 6 9.59961C6.41 9.59961 6.75 9.93961 6.75 10.3496V14.6396C6.75 15.0596 6.41 15.3896 6 15.3896Z" fill="#B45F4B"/>
<path d="M9 16.8197C8.59 16.8197 8.25 16.4797 8.25 16.0697V8.92969C8.25 8.51969 8.59 8.17969 9 8.17969C9.41 8.17969 9.75 8.51969 9.75 8.92969V16.0697C9.75 16.4897 9.41 16.8197 9 16.8197Z" fill="#B45F4B"/>
<path d="M12 18.25C11.59 18.25 11.25 17.91 11.25 17.5V7.5C11.25 7.09 11.59 6.75 12 6.75C12.41 6.75 12.75 7.09 12.75 7.5V17.5C12.75 17.91 12.41 18.25 12 18.25Z" fill="#B45F4B"/>
<path d="M15 16.8197C14.59 16.8197 14.25 16.4797 14.25 16.0697V8.92969C14.25 8.51969 14.59 8.17969 15 8.17969C15.41 8.17969 15.75 8.51969 15.75 8.92969V16.0697C15.75 16.4897 15.41 16.8197 15 16.8197Z" fill="#B45F4B"/>
<path d="M18 15.3896C17.59 15.3896 17.25 15.0496 17.25 14.6396V10.3496C17.25 9.93961 17.59 9.59961 18 9.59961C18.41 9.59961 18.75 9.93961 18.75 10.3496V14.6396C18.75 15.0596 18.41 15.3896 18 15.3896Z" fill="#B45F4B"/>
</svg>
