<svg width="16" height="16" viewBox="0 0 16 16" fill="none" xmlns="http://www.w3.org/2000/svg">
<path d="M9.2967 1.63248L10.6167 4.27248C10.7967 4.63998 11.2767 4.99248 11.6817 5.05998L14.0742 5.45748C15.6042 5.71248 15.9642 6.82248 14.8617 7.91748L13.0017 9.77748C12.6867 10.0925 12.5142 10.7 12.6117 11.135L13.1442 13.4375C13.5642 15.26 12.5967 15.965 10.9842 15.0125L8.7417 13.685C8.3367 13.445 7.6692 13.445 7.2567 13.685L5.0142 15.0125C3.4092 15.965 2.4342 15.2525 2.8542 13.4375L3.3867 11.135C3.4842 10.7 3.3117 10.0925 2.9967 9.77748L1.1367 7.91748C0.0416993 6.82248 0.3942 5.71248 1.9242 5.45748L4.3167 5.05998C4.7142 4.99248 5.1942 4.63998 5.3742 4.27248L6.6942 1.63248C7.4142 0.199981 8.5842 0.199981 9.2967 1.63248Z" fill="#C67D65"/>
</svg>
