<svg width="60" height="26" viewBox="0 0 60 26" fill="none" xmlns="http://www.w3.org/2000/svg">
<path fill-rule="evenodd" clip-rule="evenodd" d="M59.31 13.5178C59.31 9.3002 57.2671 5.97225 53.3625 5.97225C49.4415 5.97225 47.0691 9.3002 47.0691 13.4848C47.0691 18.4438 49.8698 20.948 53.8897 20.948C55.8503 20.948 57.333 20.5032 58.4533 19.8771V16.5821C57.333 17.1423 56.048 17.4883 54.4169 17.4883C52.8189 17.4883 51.402 16.9281 51.2208 14.9841H59.2771C59.2771 14.7699 59.31 13.9132 59.31 13.5178ZM51.1714 11.9527C51.1714 10.091 52.3081 9.31667 53.3461 9.31667C54.351 9.31667 55.4219 10.091 55.4219 11.9527H51.1714Z" fill="white"/>
<path fill-rule="evenodd" clip-rule="evenodd" d="M40.7096 5.97224C39.0951 5.97224 38.0572 6.73009 37.4805 7.25729L37.2664 6.23584H33.6419V25.4457L37.7606 24.5725L37.7771 19.9101C38.3702 20.3384 39.2434 20.948 40.6932 20.948C43.6422 20.948 46.3276 18.5756 46.3276 13.353C46.3111 8.57529 43.5928 5.97224 40.7096 5.97224ZM39.7211 17.3235C38.7491 17.3235 38.1725 16.9775 37.7771 16.5492L37.7606 10.437C38.189 9.95918 38.7821 9.62968 39.7211 9.62968C41.2204 9.62968 42.2583 11.3101 42.2583 13.4684C42.2583 15.676 41.2368 17.3235 39.7211 17.3235Z" fill="white"/>
<path fill-rule="evenodd" clip-rule="evenodd" d="M27.9744 5.00018L32.1096 4.11053V0.766113L27.9744 1.63929V5.00018Z" fill="white"/>
<path d="M32.1096 6.25229H27.9744V20.6679H32.1096V6.25229Z" fill="white"/>
<path fill-rule="evenodd" clip-rule="evenodd" d="M23.5425 7.47143L23.2789 6.25229H19.7203V20.6679H23.839V10.8982C24.811 9.62965 26.4585 9.8603 26.9692 10.0415V6.25229C26.442 6.05459 24.5145 5.69214 23.5425 7.47143Z" fill="white"/>
<path fill-rule="evenodd" clip-rule="evenodd" d="M15.3051 2.67719L11.2852 3.53389L11.2687 16.7303C11.2687 19.1686 13.0974 20.9644 15.5357 20.9644C16.8867 20.9644 17.8752 20.7173 18.4189 20.4207V17.0763C17.8917 17.2905 15.2886 18.0483 15.2886 15.61V9.76143H18.4189V6.25226H15.2886L15.3051 2.67719Z" fill="white"/>
<path fill-rule="evenodd" clip-rule="evenodd" d="M4.16817 10.437C4.16817 9.79444 4.69537 9.54732 5.56854 9.54732C6.82064 9.54732 8.40224 9.92624 9.65434 10.6017V6.7301C8.28691 6.18643 6.93597 5.97225 5.56854 5.97225C2.22412 5.97225 0 7.7186 0 10.6347C0 15.1818 6.26049 14.4569 6.26049 16.4174C6.26049 17.1752 5.60149 17.4224 4.67889 17.4224C3.31147 17.4224 1.56512 16.8622 0.181224 16.1044V20.0254C1.7134 20.6844 3.26205 20.9645 4.67889 20.9645C8.10569 20.9645 10.4616 19.2676 10.4616 16.3185C10.4451 11.409 4.16817 12.2822 4.16817 10.437Z" fill="white"/>
</svg>
