<svg width="24" height="24" viewBox="0 0 24 24" fill="none" xmlns="http://www.w3.org/2000/svg">
<path d="M2.15396 4.77606C1.5 6.05953 1.5 7.73969 1.5 11.1V12.9C1.5 16.2603 1.5 17.9405 2.15396 19.2239C2.7292 20.3529 3.64708 21.2708 4.77606 21.846C6.05953 22.5 7.73969 22.5 11.1 22.5H12.9C16.2603 22.5 17.9405 22.5 19.2239 21.846C20.3529 21.2708 21.2708 20.3529 21.846 19.2239C22.5 17.9405 22.5 16.2603 22.5 12.9V11.1C22.5 7.73969 22.5 6.05953 21.846 4.77606C21.2708 3.64708 20.3529 2.7292 19.2239 2.15396C17.9405 1.5 16.2603 1.5 12.9 1.5H11.1C7.73969 1.5 6.05953 1.5 4.77606 2.15396C3.64708 2.7292 2.7292 3.64708 2.15396 4.77606Z" fill="url(#paint0_linear_141_8655)"/>
<path d="M1.69892 6.20977C1.5 7.34023 1.5 8.8402 1.5 11.1001V12.9001C1.5 16.2604 1.5 17.9406 2.15396 19.224C2.7292 20.353 3.64708 21.2709 4.77606 21.8461C6.05953 22.5001 7.73969 22.5001 11.1 22.5001H12.9C16.2603 22.5001 17.9405 22.5001 19.2239 21.8461C20.3529 21.2709 21.2708 20.353 21.846 19.224C22.5 17.9406 22.5 16.2604 22.5 12.9001V11.1001C22.5 7.73977 22.5 6.05962 21.846 4.77615C21.2908 3.68645 20.4164 2.79342 19.341 2.21533L1.69892 6.20977Z" fill="url(#paint1_linear_141_8655)"/>
<path d="M22.2818 17.8906C22.1853 18.3974 22.0461 18.8295 21.8451 19.224C21.2698 20.353 20.352 21.2709 19.223 21.8461C17.9779 22.4805 16.3596 22.4995 13.1962 22.5001H12.043V20.1277L22.2818 17.8906Z" fill="url(#paint2_linear_141_8655)"/>
<path d="M12.9002 1.5H11.1002C10.4465 1.5 9.85632 1.5 9.32031 1.50482V4.47789L19.3393 2.21419C19.3012 2.19372 19.2628 2.17364 19.2242 2.15396C18.5116 1.79091 17.6769 1.62941 16.5002 1.55757C15.5574 1.5 14.395 1.5 12.9002 1.5Z" fill="url(#paint3_linear_141_8655)"/>
<path d="M22.5009 13.0302C22.5008 15.2844 22.4968 16.7703 22.2836 17.8907L18.7227 18.6687V13.3621L22.5009 12.4834V13.0302Z" fill="url(#paint4_linear_141_8655)"/>
<path fill-rule="evenodd" clip-rule="evenodd" d="M11.2056 10.0334C11.2056 9.55141 11.5996 9.36603 12.2523 9.36603C13.1883 9.36603 14.3705 9.65029 15.3065 10.157V7.2526C14.2843 6.84475 13.2745 6.68408 12.2523 6.68408C9.75238 6.68408 8.08984 7.99416 8.08984 10.1817C8.08984 13.5929 12.7696 13.0491 12.7696 14.5198C12.7696 15.0883 12.277 15.2737 11.5873 15.2737C10.5652 15.2737 9.25978 14.8535 8.22531 14.285V17.2265C9.37061 17.7208 10.5282 17.9309 11.5873 17.9309C14.1489 17.9309 15.9099 16.6579 15.9099 14.4457C15.8976 10.7626 11.2056 11.4177 11.2056 10.0334Z" fill="white"/>
<defs>
<linearGradient id="paint0_linear_141_8655" x1="1.5" y1="1.5" x2="8.39749" y2="6.37657" gradientUnits="userSpaceOnUse">
<stop stop-color="#392993"/>
<stop offset="1" stop-color="#4B47B9"/>
</linearGradient>
<linearGradient id="paint1_linear_141_8655" x1="2.2908" y1="6.43094" x2="17.5175" y2="18.9908" gradientUnits="userSpaceOnUse">
<stop stop-color="#594BB9"/>
<stop offset="1" stop-color="#60A8F2"/>
</linearGradient>
<linearGradient id="paint2_linear_141_8655" x1="12.043" y1="20.2156" x2="22.499" y2="22.5001" gradientUnits="userSpaceOnUse">
<stop stop-color="#61A2EF"/>
<stop offset="1" stop-color="#58E6FD"/>
</linearGradient>
<linearGradient id="paint3_linear_141_8655" x1="9.32031" y1="2.99372" x2="22.5002" y2="1.5" gradientUnits="userSpaceOnUse">
<stop stop-color="#534EBE"/>
<stop offset="1" stop-color="#6875E2"/>
</linearGradient>
<linearGradient id="paint4_linear_141_8655" x1="18.7227" y1="13.406" x2="22.5009" y2="17.9311" gradientUnits="userSpaceOnUse">
<stop stop-color="#71A5F3"/>
<stop offset="1" stop-color="#6CC3FA"/>
</linearGradient>
</defs>
</svg>
