<svg xmlns="http://www.w3.org/2000/svg" xmlns:xlink="http://www.w3.org/1999/xlink" zoomAndPan="magnify" preserveAspectRatio="xMidYMid meet" version="1.0" viewBox="164.38 162.87 46.49 49.5"><defs><clipPath id="id1"><path d="M 164.382812 162.867188 L 210.871094 162.867188 L 210.871094 212.367188 L 164.382812 212.367188 Z M 164.382812 162.867188 " clip-rule="nonzero"/></clipPath></defs><g clip-path="url(#id1)"><path fill="#ffffff" d="M 206.511719 188.003906 C 206.644531 190.0625 206.523438 192.136719 206.144531 194.160156 C 206.160156 193.953125 206.175781 193.75 206.1875 193.546875 C 206.421875 189.039062 205.683594 184.539062 203.273438 180.660156 C 202.039062 178.671875 200.453125 177.003906 198.613281 175.695312 C 198.8125 175.464844 199.007812 175.234375 199.207031 175.007812 C 203.347656 177.988281 206.171875 182.808594 206.511719 188.003906 Z M 172.28125 207.132812 C 168.796875 204.566406 166.394531 200.59375 165.5 196.386719 C 164.613281 192.199219 165.300781 187.96875 167.136719 184.132812 C 169.195312 179.832031 172.894531 176.671875 177.210938 174.941406 C 175.324219 176.296875 173.707031 177.992188 172.347656 179.996094 C 169.503906 184.191406 167.941406 189.109375 168.28125 194.203125 C 168.613281 199.222656 170.644531 204.246094 174.816406 207.253906 C 178.789062 210.121094 184.175781 211.433594 189.027344 211.246094 C 189.1875 211.242188 189.34375 211.226562 189.503906 211.21875 C 183.527344 212.070312 176.925781 210.554688 172.28125 207.132812 Z M 184.042969 196.082031 C 182.207031 193.25 180.523438 190.300781 178.824219 187.398438 C 178.289062 186.480469 176.890625 187.296875 177.398438 188.230469 C 179.496094 192.066406 181.675781 195.925781 183.4375 199.929688 C 183.933594 201.066406 185.535156 200.582031 185.871094 199.613281 C 186.804688 196.890625 187.621094 194.152344 188.773438 191.511719 C 189.902344 188.925781 191.199219 186.410156 192.652344 183.992188 C 194.25 181.335938 196.046875 178.800781 198.015625 176.410156 C 198.1875 176.53125 198.355469 176.65625 198.519531 176.785156 C 205.25 182.066406 206.742188 192.046875 203.972656 199.8125 C 203.550781 201 202.988281 202.113281 202.308594 203.144531 C 201.542969 204.199219 200.6875 205.1875 199.742188 206.09375 C 199.582031 206.246094 199.421875 206.398438 199.261719 206.550781 C 197.9375 207.644531 196.425781 208.523438 194.769531 209.136719 C 190.492188 210.722656 185.71875 210.558594 181.386719 209.285156 C 176.441406 207.828125 172.394531 204.980469 170.484375 200.058594 C 168.695312 195.460938 168.714844 190.246094 170.40625 185.628906 C 171.796875 181.832031 174.351562 178.050781 177.683594 175.695312 C 178.707031 174.96875 179.839844 174.34375 181.027344 173.816406 C 183.09375 173.417969 185.222656 173.320312 187.332031 173.558594 C 189.625 173.816406 191.808594 174.527344 193.714844 175.84375 C 193.949219 176.007812 194.167969 175.625 193.9375 175.460938 C 192.433594 174.394531 190.761719 173.6875 189.011719 173.273438 C 191.316406 173.515625 193.582031 174.046875 195.652344 175.027344 C 192.074219 179.386719 189.027344 184.1875 186.703125 189.328125 C 185.71875 191.507812 184.761719 193.769531 184.042969 196.082031 Z M 190.390625 171.945312 C 192.691406 172.015625 194.882812 172.609375 196.863281 173.59375 C 196.664062 173.824219 196.464844 174.054688 196.269531 174.285156 C 194.855469 173.582031 193.34375 173.058594 191.75 172.734375 C 190.152344 172.410156 188.492188 172.214844 186.816406 172.15625 C 188.019531 171.984375 189.222656 171.90625 190.390625 171.945312 Z M 203.332031 170.714844 C 205.699219 168.476562 208.324219 166.523438 210.621094 164.210938 C 211.3125 163.515625 210.441406 162.59375 209.640625 162.941406 C 206.902344 164.132812 204.53125 166.050781 202.324219 168.035156 C 200.652344 169.539062 199.058594 171.136719 197.554688 172.8125 C 197.066406 172.5625 196.566406 172.332031 196.054688 172.128906 C 191.632812 170.355469 186.757812 170.785156 182.328125 172.328125 C 180.394531 172.546875 178.496094 172.957031 176.703125 173.574219 C 174.539062 174.320312 172.570312 175.457031 170.898438 177.023438 C 170.648438 177.261719 171.011719 177.605469 171.269531 177.394531 C 172.753906 176.191406 174.425781 175.292969 176.199219 174.632812 C 173.6875 175.675781 171.367188 177.164062 169.523438 179.191406 C 163.632812 185.671875 162.640625 195.703125 167.394531 203.085938 C 172.195312 210.550781 182.128906 213.449219 190.597656 212.015625 C 192.59375 211.675781 194.640625 211.050781 196.414062 210.058594 C 197.664062 209.359375 198.855469 208.367188 199.933594 207.335938 C 200.5 206.878906 201.039062 206.382812 201.539062 205.839844 C 202.207031 205.113281 202.789062 204.328125 203.300781 203.507812 C 205.386719 200.554688 206.761719 197.121094 207.308594 193.53125 C 207.96875 189.1875 207.632812 184.667969 205.558594 180.738281 C 204.207031 178.171875 202.242188 175.933594 199.886719 174.242188 C 200.988281 173.023438 202.136719 171.84375 203.332031 170.714844 " fill-opacity="1" fill-rule="nonzero"/></g></svg>